<svg xmlns="http://www.w3.org/2000/svg" xmlns:xlink="http://www.w3.org/1999/xlink" viewBox="0 0 4000 2000">
  <defs>
    <style>
      .cls-1 {
        clip-path: url(#clip-iPhone_6_7_8_2);
      }

      .cls-2, .cls-3, .cls-5, .cls-6 {
        fill: #fff;
      }

      .cls-3 {
        stroke: #707070;
      }

      .cls-4 {
        fill: #ffab4a;
      }

      .cls-5 {
        font-size: 404px;
        font-family: SegoeScript-Bold, Segoe Script;
        font-weight: 700;
      }

      .cls-6 {
        font-size: 115px;
        font-family: OCRAbyBT-Regular, OCR-A BT;
      }

      .cls-7 {
        stroke: none;
      }

      .cls-8 {
        fill: none;
      }
    </style>
    <clipPath id="clip-iPhone_6_7_8_2">
      <rect width="4000" height="2000"/>
    </clipPath>
  </defs>
  <g id="iPhone_6_7_8_2" data-name="iPhone 6/7/8 – 2" class="cls-1">
    <rect class="cls-4" width="4000" height="2000"/>
    <g id="Group_1" data-name="Group 1" transform="translate(1951.101 473)">
      <path id="Path_7" data-name="Path 7" class="cls-2" d="M1884.76,843.368a49.351,49.351,0,0,1,3.342-18.28,45.143,45.143,0,0,1,9.379-14.779,43.254,43.254,0,0,1,14.421-9.883,46.35,46.35,0,0,1,18.4-3.585,41.383,41.383,0,0,1,13.8,2.186,37.794,37.794,0,0,1,12,7.17v-7.609h22.678v89.56H1956.1v-7.609a37.755,37.755,0,0,1-12,7.17,41.321,41.321,0,0,1-13.8,2.189,46.33,46.33,0,0,1-18.4-3.585,43.224,43.224,0,0,1-14.421-9.882,45.14,45.14,0,0,1-9.379-14.782,49.335,49.335,0,0,1-3.342-18.28Zm48.49,25.626a29.689,29.689,0,0,0,5.62-.568,26.755,26.755,0,0,0,5.944-1.925,27.807,27.807,0,0,0,5.84-3.63,32.845,32.845,0,0,0,5.447-5.6V829.462a31.518,31.518,0,0,0-5.447-5.551,30.556,30.556,0,0,0-5.852-3.63,25.15,25.15,0,0,0-5.933-1.966,29.79,29.79,0,0,0-5.62-.569,25.316,25.316,0,0,0-9.876,1.924,24.183,24.183,0,0,0-7.991,5.379,25.014,25.014,0,0,0-5.308,8.135,28,28,0,0,0,0,20.378,25,25,0,0,0,5.308,8.133,24.169,24.169,0,0,0,7.991,5.38A25.358,25.358,0,0,0,1933.25,868.994Zm102.231-50.046c-10.743.076-20.076,7.412-20.076,18.3v50.9h-22.69V837.857c.127-20.971,18.677-40.737,42.442-41.019h.636c23.765.282,42.315,20.048,42.442,41.019v50.29h-22.69v-50.9c0-10.887-9.333-18.222-20.076-18.3Zm53.486,24.42a49.361,49.361,0,0,1,3.354-18.28,45.112,45.112,0,0,1,9.367-14.78,43.359,43.359,0,0,1,14.421-9.883,46.352,46.352,0,0,1,18.4-3.585,41.71,41.71,0,0,1,13.843,2.186,37.516,37.516,0,0,1,11.969,7.086V771.739H2183v116.41h-22.678v-7.517a36.137,36.137,0,0,1-11.97,7.127,42.417,42.417,0,0,1-13.843,2.139,46.332,46.332,0,0,1-18.4-3.585,43.34,43.34,0,0,1-14.421-9.882,45.1,45.1,0,0,1-9.367-14.782,49.34,49.34,0,0,1-3.354-18.28Zm48.49,25.626a29.694,29.694,0,0,0,5.621-.568,26.753,26.753,0,0,0,5.944-1.924,28.182,28.182,0,0,0,5.852-3.63,33.738,33.738,0,0,0,5.447-5.6V829.462a32.339,32.339,0,0,0-5.447-5.551,30.938,30.938,0,0,0-5.852-3.63,25.408,25.408,0,0,0-5.944-1.966,29.793,29.793,0,0,0-5.621-.569,25.258,25.258,0,0,0-9.865,1.924,23.95,23.95,0,0,0-7.991,5.379,25.037,25.037,0,0,0-5.32,8.135,28,28,0,0,0,0,20.378,25.042,25.042,0,0,0,5.32,8.133,23.935,23.935,0,0,0,7.991,5.38A25.3,25.3,0,0,0,2137.457,868.994Zm151.75,0a24.665,24.665,0,0,0,9.6-1.88,23.746,23.746,0,0,0,7.864-5.291,24.751,24.751,0,0,0,5.262-8.1,26.98,26.98,0,0,0,1.92-10.364,26.335,26.335,0,0,0-1.954-10.276,25.213,25.213,0,0,0-5.366-8.1,24.83,24.83,0,0,0-7.852-5.335,23.731,23.731,0,0,0-9.472-1.924,24.332,24.332,0,0,0-17.451,7.259,25.662,25.662,0,0,0-5.32,8.1,26.328,26.328,0,0,0-1.966,10.277,27.2,27.2,0,0,0,1.919,10.363,24.976,24.976,0,0,0,5.274,8.095,23.689,23.689,0,0,0,7.852,5.291,24.953,24.953,0,0,0,9.691,1.88Zm0,20.9a49.849,49.849,0,0,1-18.665-3.5,47.63,47.63,0,0,1-15.312-9.752,45.95,45.95,0,0,1-10.35-14.779,44.949,44.949,0,0,1-3.8-18.5,44,44,0,0,1,3.8-18.191,47.015,47.015,0,0,1,10.3-14.781,49.169,49.169,0,0,1,67.953,0,47.053,47.053,0,0,1,10.316,14.781,44,44,0,0,1,3.793,18.191,44.944,44.944,0,0,1-3.793,18.5,45.934,45.934,0,0,1-10.35,14.78,47.722,47.722,0,0,1-15.277,9.752,49.442,49.442,0,0,1-18.619,3.5Zm69.549-98.321a13.077,13.077,0,0,1-5.216-1.056,13.914,13.914,0,0,1-4.3-2.868,13.6,13.6,0,0,1-2.926-4.219,12.623,12.623,0,0,1,0-10.249,13.319,13.319,0,0,1,2.926-4.261,13.939,13.939,0,0,1,4.3-2.869,13.083,13.083,0,0,1,5.216-1.055,13.348,13.348,0,0,1,5.25,1.055,13.758,13.758,0,0,1,4.348,2.869,13.538,13.538,0,0,1,2.938,4.26,12.647,12.647,0,0,1,1.075,5.146,12.356,12.356,0,0,1-1.075,5.1,13.72,13.72,0,0,1-7.286,7.086,13.328,13.328,0,0,1-5.251,1.056Zm-11.345,7.012h22.678v89.561h-22.678Zm33.109,44.78a49.356,49.356,0,0,1,3.354-18.28,45.108,45.108,0,0,1,9.367-14.78,43.37,43.37,0,0,1,14.421-9.883,46.351,46.351,0,0,1,18.4-3.585,41.71,41.71,0,0,1,13.843,2.186,37.513,37.513,0,0,1,11.97,7.085V771.739h22.678v116.41h-22.678v-7.517a36.131,36.131,0,0,1-11.969,7.127,42.47,42.47,0,0,1-13.843,2.138,46.329,46.329,0,0,1-18.4-3.585,43.339,43.339,0,0,1-14.421-9.882,45.1,45.1,0,0,1-9.367-14.782,49.33,49.33,0,0,1-3.354-18.28Zm48.49,25.626a29.687,29.687,0,0,0,5.621-.568,26.759,26.759,0,0,0,5.944-1.924,27.8,27.8,0,0,0,5.84-3.63,33.339,33.339,0,0,0,5.458-5.6V829.462a31.955,31.955,0,0,0-5.458-5.551,30.479,30.479,0,0,0-5.84-3.63,25.407,25.407,0,0,0-5.944-1.966,29.783,29.783,0,0,0-5.62-.569,25.258,25.258,0,0,0-9.865,1.924,23.946,23.946,0,0,0-7.991,5.379,25.035,25.035,0,0,0-5.32,8.135,28,28,0,0,0,0,20.378,25.032,25.032,0,0,0,5.32,8.133,24.052,24.052,0,0,0,7.991,5.38A25.3,25.3,0,0,0,2429.011,868.994Zm-190.086-50.315c-15.207,0-21.9,7.681-21.9,18.568v50.9h-22.69V837.857c.127-20.971,12.5-41.587,44.593-41.587" transform="translate(-1884.758 -573.029)"/>
      <path id="Path_6" data-name="Path 6" class="cls-2" d="M2051.15,622.281a88.508,88.508,0,0,0-32.4-32.356,89.734,89.734,0,0,0-89.394,0A88.955,88.955,0,0,0,1945.878,751.3c2.082.386,3.631.116,4.637-.81a4.556,4.556,0,0,0,1.5-3.469c0-.231-.023-2.313-.058-6.252s-.058-7.371-.058-10.3l-2.671.463a33.943,33.943,0,0,1-6.43.4,49.069,49.069,0,0,1-8.06-.81,18.006,18.006,0,0,1-7.771-3.469,14.7,14.7,0,0,1-5.1-7.119l-1.156-2.66a28.866,28.866,0,0,0-3.654-5.9,14.007,14.007,0,0,0-5.042-4.395l-.81-.578a8.873,8.873,0,0,1-1.515-1.388,6.357,6.357,0,0,1-1.041-1.619c-.231-.541-.035-.985.578-1.333a7.577,7.577,0,0,1,3.365-.517l2.324.347a16.944,16.944,0,0,1,5.736,2.776,18.7,18.7,0,0,1,5.62,6.013,20.376,20.376,0,0,0,6.441,7.236,13.651,13.651,0,0,0,7.586,2.487,33.1,33.1,0,0,0,6.615-.578,23.246,23.246,0,0,0,5.216-1.735q1.041-7.76,5.678-11.924a79.712,79.712,0,0,1-11.888-2.082,47.324,47.324,0,0,1-10.894-4.516,31.286,31.286,0,0,1-9.332-7.755,37.251,37.251,0,0,1-6.083-12.155,57.7,57.7,0,0,1-2.383-17.365,33.736,33.736,0,0,1,9.159-23.848q-4.285-10.533.809-23.615,3.365-1.041,9.98,1.562a69.559,69.559,0,0,1,9.68,4.458q3.07,1.85,4.926,3.122a83.852,83.852,0,0,1,44.524,0l4.406-2.776a62.589,62.589,0,0,1,10.662-5.1q6.141-2.313,9.4-1.272,5.2,13.082.925,23.615a33.738,33.738,0,0,1,9.159,23.848,58.281,58.281,0,0,1-2.383,17.422,35.864,35.864,0,0,1-6.141,12.156,32.35,32.35,0,0,1-9.39,7.7,47.428,47.428,0,0,1-10.906,4.51,79.111,79.111,0,0,1-11.877,2.082q6.02,5.2,6.025,16.438v24.424a4.626,4.626,0,0,0,1.446,3.469q1.457,1.388,4.579.81a89.035,89.035,0,0,0,48.93-129.013Z" transform="translate(-1884.723 -578)"/>
    </g>
    <g id="Ellipse_2" data-name="Ellipse 2" class="cls-3" transform="translate(320 400)">
      <circle class="cls-7" cx="600" cy="600" r="600"/>
      <circle class="cls-8" cx="600" cy="600" r="599.5"/>
    </g>
    <g id="list" transform="translate(543 632.026)">
      <g id="Group_3" data-name="Group 3" transform="translate(0 20.974)">
        <g id="Group_2" data-name="Group 2">
          <path id="Path_1" data-name="Path 1" class="cls-4" d="M87.383,228.568c-1.511-4.8-7.683-7.133-13.994-7.133S60.907,223.77,59.4,228.568L33.887,312.244a6.952,6.952,0,0,0-.277,1.511c0,5.073,7.817,8.777,13.718,8.777,3.428,0,6.173-1.1,7-3.979l4.664-17.146H87.929l4.664,17.146c.827,2.88,3.568,3.979,7,3.979,5.9,0,13.718-3.7,13.718-8.777a6.93,6.93,0,0,0-.274-1.511ZM63.377,284.945,73.39,248.179l10.017,36.766Z" transform="translate(15.945 74.128)"/>
          <path id="Path_2" data-name="Path 2" class="cls-4" d="M188.134,221.994H159.74c-4.8,0-7.956,3.018-7.956,6.448V315.68c0,4.392,5.352,6.589,10.7,6.589s10.7-2.2,10.7-6.589V286.056h13.579c18.929,0,33.745-8.783,33.745-31.827v-.686C220.508,230.5,206.243,221.994,188.134,221.994Zm10.976,33.875c0,9.33-4.662,13.722-12.345,13.722H173.185V240.65h13.579c7.683,0,12.345,4.386,12.345,13.714Z" transform="translate(72.009 74.393)"/>
          <path id="Path_3" data-name="Path 3" class="cls-4" d="M383.3,221.994c-3.428,0-6.17,1.1-6.995,3.977l-19.067,70.366-19.2-70.366c-.821-2.88-3.565-3.977-6.995-3.977-5.9,0-13.718,3.7-13.718,8.777a7.077,7.077,0,0,0,.277,1.511l25.65,83.673c1.508,4.8,7.682,7.133,13.989,7.133s12.482-2.333,13.991-7.133l25.516-83.673a7.054,7.054,0,0,0,.274-1.511C397.022,225.693,389.2,221.994,383.3,221.994Z" transform="translate(150.543 74.393)"/>
          <path id="Path_4" data-name="Path 4" class="cls-4" d="M132.307,221.994h-28.4c-4.8,0-7.952,3.018-7.952,6.448V315.68c0,4.392,5.348,6.589,10.7,6.589s10.7-2.2,10.7-6.589V286.056h13.581c18.929,0,33.743-8.783,33.743-31.827v-.686C164.676,230.5,150.41,221.994,132.307,221.994Zm10.97,33.875c0,9.33-4.661,13.722-12.342,13.722H117.353V240.65h13.581c7.682,0,12.342,4.386,12.342,13.714Z" transform="translate(45.522 74.393)"/>
          <path id="Path_5" data-name="Path 5" class="cls-4" d="M466.316,221.994H442.035c-5.623,0-9.327,3.018-9.327,6.448v87.377c0,3.432,3.7,6.451,9.327,6.451h24.281c18.929,0,33.743-8.777,33.743-32.374v-35.53C500.059,230.771,485.244,221.994,466.316,221.994Zm12.347,67.9c0,9.33-4.668,13.716-12.347,13.716H454.108V240.65h12.208c7.679,0,12.347,4.386,12.347,13.714Z" transform="translate(205.283 74.393)"/>
          <path id="Path_6-2" data-name="Path 6" class="cls-4" d="M437.829,240.652h0c4.115,0,6.446-4.394,6.446-9.47,0-4.392-1.921-9.189-6.446-9.189H389c-4.665,0-9.329,2.194-9.329,6.58v87.105c0,4.392,4.664,6.589,9.329,6.589h48.833c4.525,0,6.446-4.8,6.446-9.191,0-5.073-2.331-9.466-6.446-9.466H401.068V280.291h20.574c4.526,0,6.446-4.386,6.446-8.094,0-4.386-2.33-8.363-6.446-8.363H401.068V240.652Z" transform="translate(180.12 74.392)"/>
          <path id="Path_7-2" data-name="Path 7" class="cls-4" d="M297.707,221.994c-18.931,0-33.609,8.777-33.609,32.371v36.35c0,23.6,14.678,32.374,33.609,32.374s33.743-8.777,33.743-32.374v-36.35C331.449,230.771,316.633,221.994,297.707,221.994Zm12.344,68.72c0,9.469-4.662,13.716-12.344,13.716S285.5,300.182,285.5,290.714v-36.35c0-9.466,4.526-13.714,12.208-13.714s12.344,4.248,12.344,13.714Z" transform="translate(125.292 74.393)"/>
          <path id="Path_8" data-name="Path 8" class="cls-4" d="M259.742,279.19c9.6-3.7,16.6-12.478,16.6-27.841,0-22.361-14.954-29.356-33.743-29.356H214.2a6.385,6.385,0,0,0-6.583,6.448v87.238c0,4.392,5.351,6.589,10.7,6.589s10.7-2.2,10.7-6.589V282.622h9.054l18.793,36.489a7.3,7.3,0,0,0,6.856,3.976c6.312,0,13.442-5.759,13.442-11.11a4.533,4.533,0,0,0-.686-2.474ZM242.6,266.159H229.016V240.65H242.6c7.682,0,12.344,3.157,12.344,12.754S250.277,266.159,242.6,266.159Z" transform="translate(98.496 74.392)"/>
          <path id="Path_9" data-name="Path 9" class="cls-4" d="M717.851,227.234H694.373a346.6,346.6,0,0,0-633.844,0H37.049A37.089,37.089,0,0,0,0,264.283V470.71a37.091,37.091,0,0,0,37.049,37.051H60.526a346.6,346.6,0,0,0,633.846,0h23.479A37.092,37.092,0,0,0,754.9,470.71V264.283A37.092,37.092,0,0,0,717.851,227.234ZM377.452,50.462A315.882,315.882,0,0,1,661.838,227.234H557.908a228.533,228.533,0,0,0-360.917,0H160.844a258.037,258.037,0,0,1,308.6-100.84,14.744,14.744,0,0,0,10.517-27.549A287.514,287.514,0,0,0,126.441,227.236H93.064A315.876,315.876,0,0,1,377.452,50.462ZM518.661,227.234H236.237a198.91,198.91,0,0,1,282.424,0Zm-141.209,457.3A315.888,315.888,0,0,1,93.061,507.759h103.93a228.537,228.537,0,0,0,360.919,0h36.145A258.04,258.04,0,0,1,285.45,608.6a14.744,14.744,0,1,0-10.516,27.549A287.523,287.523,0,0,0,628.459,507.759h33.379A315.884,315.884,0,0,1,377.452,684.537ZM236.237,507.761h282.43a198.92,198.92,0,0,1-282.43,0Zm489.177-37.049a7.663,7.663,0,0,1-7.562,7.562H37.049a7.663,7.663,0,0,1-7.561-7.562V264.283a7.663,7.663,0,0,1,7.561-7.562h680.8a7.663,7.663,0,0,1,7.562,7.562V470.712Z" transform="translate(0 -20.974)"/>
          <path id="Path_10" data-name="Path 10" class="cls-4" d="M345.561,113.086l.631.36A14.745,14.745,0,0,0,360.572,87.7l-.125-.069a14.744,14.744,0,1,0-14.886,25.456Z" transform="translate(160.474 9.69)"/>
          <path id="Path_11" data-name="Path 11" class="cls-4" d="M175.923,408.4l-.379-.217a14.745,14.745,0,1,0-14.629,25.6l.377.215a14.744,14.744,0,0,0,14.631-25.6Z" transform="translate(72.815 161.799)"/>
        </g>
      </g>
    </g>
    <text id="Freedom" class="cls-5" transform="translate(1919 1202.114)"><tspan x="0" y="0">Freedom</tspan></text>
    <text id="All-in-one_runtime_permission_management_library" data-name="All-in-one runtime permission
management library" class="cls-6" transform="translate(1919 1376.58)"><tspan x="0" y="0">All-in-one runtime permission</tspan><tspan x="0" y="126">management library</tspan></text>
  </g>
</svg>
